<?xml version="1.0" standalone="no"?><!DOCTYPE svg PUBLIC "-//W3C//DTD SVG 1.1//EN" "http://www.w3.org/Graphics/SVG/1.1/DTD/svg11.dtd"><svg t="1499915525559" class="icon" style="" viewBox="0 0 1024 1024" version="1.1" xmlns="http://www.w3.org/2000/svg" p-id="1655" xmlns:xlink="http://www.w3.org/1999/xlink" width="200" height="200"><defs><style type="text/css"></style></defs><path d="M8 24l0 35.904 0 718.152 0 35.904 35.904 0 416.304 0c42.896 104.824 145.992 179.536 265.944 179.536 158.224 0 287.256-129.032 287.256-287.256 0-105.896-57.96-198.176-143.624-247.992L869.784 59.904 869.784 24l-35.912 0L43.904 24 8 24zM79.816 95.816l718.144 0 0 333.264c-23.112-6.032-46.856-10.104-71.816-10.104l0-35.904L295.256 383.072l0 71.816 291.752 0c-32.824 18.24-60.792 42.704-84.16 71.816L295.256 526.704l0 71.816 164.952 0c-13.68 33.448-21.32 69.456-21.32 107.728 0 12.264 0.736 24.04 2.24 35.904L79.816 742.152 79.816 95.816zM151.632 239.448l0 71.816 71.816 0 0-71.816L151.632 239.448zM295.256 239.448l0 71.816 430.888 0 0-71.816L295.256 239.448zM151.632 383.072l0 71.816 71.816 0 0-71.816L151.632 383.072zM726.152 490.8c119.424 0 215.448 96.024 215.448 215.448s-96.024 215.448-215.448 215.448S510.704 825.664 510.704 706.24 606.728 490.8 726.152 490.8zM151.632 526.704l0 71.816 71.816 0 0-71.816L151.632 526.704zM690.24 562.608l0 107.728L582.512 670.336l0 71.816L690.24 742.152l0 107.72 71.816 0L762.056 742.152l107.728 0 0-71.816L762.056 670.336 762.056 562.608 690.24 562.608z" p-id="1656"></path></svg>