<?xml version="1.0" standalone="no"?><!DOCTYPE svg PUBLIC "-//W3C//DTD SVG 1.1//EN" "http://www.w3.org/Graphics/SVG/1.1/DTD/svg11.dtd"><svg t="1505443868537" class="icon" style="" viewBox="0 0 1025 1024" version="1.1" xmlns="http://www.w3.org/2000/svg" p-id="5930" xmlns:xlink="http://www.w3.org/1999/xlink" width="200.1953125" height="200"><defs><style type="text/css"></style></defs><path d="M989.88032 887.22944 68.8896 887.22944l0-290.2784 196.61312-196.62848c12.8256 5.87264 27.01312 9.34912 42.1632 9.34912 15.16032 0 29.2608-3.47648 42.1632-9.34912l137.72288 137.74848c-5.9136 12.83072-9.33888 27.07968-9.33888 42.14784 0 56.4992 45.85472 102.35904 102.35392 102.35904 56.46848 0 102.32832-45.85984 102.32832-102.35904 0-15.06816-3.49184-29.32224-9.35936-42.14784l338.40128-338.40128c14.73024-14.64832 14.73024-38.4768 0-53.22752-14.67904-14.65344-38.49216-14.65344-53.22752 0l-339.2512 339.2c-12.01664-4.95104-25.1136-7.75168-38.89152-7.75168-13.7984 0-26.96704 2.80064-38.9632 7.75168L402.23232 346.22464c4.97152-11.9296 7.76192-25.09824 7.76192-38.90176 0-56.4736-45.82912-102.3232-102.32832-102.3232s-102.3232 45.8496-102.3232 102.3232c0 13.80352 2.78528 26.97728 7.78752 38.90176L68.8896 490.5216 68.8896 102.66624c0-18.82624-15.27296-34.1248-34.1248-34.1248-18.81088 0-34.0992 15.29856-34.0992 34.1248l0 466.15552c-0.88576 4.59264-0.88576 9.14944 0 13.72672l0 338.80064c0 18.83136 15.28832 34.0992 34.0992 34.0992l955.11552 0c18.86208 0 34.11968-15.26784 34.11968-34.0992C1024 902.5024 1008.7424 887.22944 989.88032 887.22944M580.57216 546.11968c18.81088 0 34.0992 15.25248 34.0992 34.0992s-15.28832 34.12992-34.0992 34.12992c-18.85184 0-34.12992-15.27808-34.12992-34.12992S561.66912 546.11968 580.57216 546.11968M307.66592 273.21856c18.83648 0 34.12992 15.29856 34.12992 34.0992 0 18.85184-15.28832 34.1248-34.12992 34.1248-18.81088 0-34.0992-15.27296-34.0992-34.1248C273.56672 288.52224 288.77824 273.21856 307.66592 273.21856" p-id="5931"></path></svg>