<?xml version="1.0" standalone="no"?><!DOCTYPE svg PUBLIC "-//W3C//DTD SVG 1.1//EN" "http://www.w3.org/Graphics/SVG/1.1/DTD/svg11.dtd"><svg t="1506389792459" class="icon" style="" viewBox="0 0 1024 1024" version="1.1" xmlns="http://www.w3.org/2000/svg" p-id="3558" xmlns:xlink="http://www.w3.org/1999/xlink" width="200" height="200"><defs><style type="text/css"></style></defs><path d="M897.806209 484.66604c-9.994356 0-19.868297 2.287865-28.899342 6.622765L535.119473 212.650988c8.188147-15.65381 9.873942-33.836312 4.455315-50.694262-10.596425-33.956726-46.720602-52.861712-80.677328-42.265287-0.120414 0.120414-0.361242 0.120414-0.481656 0.120414-29.501411 9.873942-48.045155 39.134525-44.191909 70.080903l-209.761054 68.515522c-15.65381-24.684854-45.998119-35.522107-73.813735-26.491063-33.956726 11.318909-52.620884 48.045155-41.542803 82.24271 6.74318 21.19285 23.841957 37.569144 45.396049 43.228598L115.597366 770.047037c-37.809972 5.659454-63.698965 40.82032-58.039511 78.630291 5.659454 37.809972 40.82032 63.698965 78.630292 58.039511 32.632173-4.936971 57.317027-32.391345 58.761994-65.38476l315.002822-65.98683c9.392286 18.062088 28.056444 29.501411 48.406397 29.742239 30.70555-0.240828 55.390405-25.286924 55.029163-55.992474 0-3.973659-0.481656-8.067733-1.444967-11.920978L845.305738 598.216369c12.88429 15.774224 32.270931 25.046096 52.620885 25.046096 38.291627 0 69.238006-31.066792 69.238005-69.35842s-31.066792-69.35842-69.358419-69.238005z m-430.238947 41.783631c-1.565381-34.67921-22.517404-65.38476-54.065851-79.593603l59.84572-199.766698c16.857949 1.204139 33.475071-4.334901 46.238946-15.292568l328.850423 274.182502c-8.669802 9.151458-14.690499 20.470367-17.339604 32.632173l-363.529634-12.161806zM160.391345 777.994356c-6.381938-3.732832-13.245532-6.381938-20.470367-7.826905l18.784572-411.213547c9.873942-1.204139 19.266228-4.816557 27.454375-10.476011l117.764816 128.120414c-25.648166 35.040452-23.360301 83.326435 5.298213 115.71778L160.391345 777.994356z m289.475071-537.046096l-59.84572 199.405456c-24.684854-3.973659-49.851364 2.889934-69.117592 18.664158l-117.523988-127.759172c9.873942-14.570085 13.606773-32.511759 10.114769-49.851364l207.834431-67.913453c6.381938 11.920978 16.376294 21.433678 28.5381 27.454375zM191.578551 816.647225c-2.649106-8.428975-6.984008-16.135466-12.643462-22.999059l148.711195-185.317028c28.417686 18.784572 65.143932 19.627469 94.52493 2.287865l91.394167 105.964252c-6.74318 9.5127-10.355597 20.831609-10.355597 32.391345 0 0.842897 0 1.565381 0.240827 2.287865l-311.87206 65.38476z m409.888994-102.231421c-10.235183-13.486359-26.250235-21.313264-43.228599-21.433678-9.271872 0.120414-18.42333 2.528692-26.370649 7.104422l-90.310442-104.639699c11.920978-12.28222 20.349953-27.815616 23.962371-44.553152l364.613358 12.28222c0.60207 4.455315 1.685795 8.91063 3.130762 13.245532L601.467545 714.415804z" p-id="3559"></path></svg>