<?xml version="1.0" standalone="no"?><!DOCTYPE svg PUBLIC "-//W3C//DTD SVG 1.1//EN" "http://www.w3.org/Graphics/SVG/1.1/DTD/svg11.dtd"><svg class="icon" width="200px" height="200.00px" viewBox="0 0 1024 1024" version="1.1" xmlns="http://www.w3.org/2000/svg"><path fill="#333333" d="M913.634151 767.683895H139.26689V227.595696c0-15.895572-12.824837-28.720409-28.720409-28.720409s-28.720409 12.824837-28.720409 28.720409v597.709649h831.98871c15.895572 0 28.720409-12.824837 28.720409-28.720409-0.180632-16.076204-13.005468-28.901041-28.90104-28.901041zM289.37167 747.814429c15.895572 0 28.720409-12.824837 28.72041-28.720409V512.090316c0-15.895572-12.824837-28.720409-28.72041-28.720409s-28.720409 12.824837-28.720409 28.720409v207.003704c0 15.895572 12.824837 28.720409 28.720409 28.720409zM602.406068 747.814429c15.895572 0 28.720409-12.824837 28.720409-28.720409V404.253307c0-15.895572-12.824837-28.720409-28.720409-28.720409s-28.720409 12.824837-28.720409 28.720409V718.913389c0 16.076204 12.824837 28.901041 28.720409 28.90104zM449.591815 747.814429c15.895572 0 28.720409-12.824837 28.720409-28.720409v-417.258776c0-15.895572-12.824837-28.720409-28.720409-28.720409s-28.720409 12.824837-28.720409 28.720409v417.258776c-0.180632 15.895572 12.824837 28.720409 28.720409 28.720409zM760.639266 747.814429c15.895572 0 28.720409-12.824837 28.720409-28.720409V246.020109c0-15.895572-12.824837-28.720409-28.720409-28.720409s-28.720409 12.824837-28.720409 28.720409v473.073911c0 15.895572 12.824837 28.720409 28.720409 28.720409z" /></svg>