<?xml version="1.0" standalone="no"?><!DOCTYPE svg PUBLIC "-//W3C//DTD SVG 1.1//EN" "http://www.w3.org/Graphics/SVG/1.1/DTD/svg11.dtd"><svg t="1497423887305" class="icon" style="" viewBox="0 0 1024 1024" version="1.1" xmlns="http://www.w3.org/2000/svg" p-id="1113" xmlns:xlink="http://www.w3.org/1999/xlink" width="48" height="48"><defs><style type="text/css">@font-face { font-family: uc-nexus-iconfont; src: url("chrome-extension://pogijhnlcfmcppgimcaccdkmbedjkmhi/res/font_9qmmi8b8jsxxbt9.woff") format("woff"), url("chrome-extension://pogijhnlcfmcppgimcaccdkmbedjkmhi/res/font_9qmmi8b8jsxxbt9.ttf") format("truetype"); }
</style></defs><path d="M644.864 512l365.44-365.376a46.976 46.976 0 0 0 0-66.368l-66.56-66.56a46.976 46.976 0 0 0-66.368 0L512 379.2 146.624 13.696a46.976 46.976 0 0 0-66.368 0l-66.56 66.56a46.976 46.976 0 0 0 0 66.368L379.2 512l-365.44 365.376a47.104 47.104 0 0 0 0 66.496l66.56 66.368a46.976 46.976 0 0 0 66.368 0L512 644.864l365.376 365.44a46.976 46.976 0 0 0 66.368 0l66.56-66.56a46.976 46.976 0 0 0 0-66.368L644.8 512" fill="#000000" p-id="1114"></path></svg>