<?xml version="1.0" standalone="no"?><!DOCTYPE svg PUBLIC "-//W3C//DTD SVG 1.1//EN" "http://www.w3.org/Graphics/SVG/1.1/DTD/svg11.dtd"><svg t="1495788584820" class="icon" style="" viewBox="0 0 1024 1024" version="1.1" xmlns="http://www.w3.org/2000/svg" p-id="2491" xmlns:xlink="http://www.w3.org/1999/xlink" width="200" height="200"><defs><style type="text/css">@font-face { font-family: uc-nexus-iconfont; src: url("chrome-extension://pogijhnlcfmcppgimcaccdkmbedjkmhi/res/font_9qmmi8b8jsxxbt9.woff") format("woff"), url("chrome-extension://pogijhnlcfmcppgimcaccdkmbedjkmhi/res/font_9qmmi8b8jsxxbt9.ttf") format("truetype"); }
</style></defs><path d="M750.381737 221.002416 463.634967 511.525186l286.74677 290.511513c8.848529 8.875135 15.504112 19.020192 19.917632 30.41266 4.437056 11.366885 6.655584 22.933315 6.655584 34.649148 0 11.691273-2.218528 23.108301-6.655584 34.17638-4.41352 11.067057-11.06808 21.039175-19.917632 29.888727-17.749246 18.371416-38.937824 27.545356-63.641459 27.545356-24.653493 0-45.86663-9.17394-63.591317-27.545356L276.6012 581.77311c-8.875135-8.848529-15.829524-19.443841-20.889773-31.80845-5.060249-12.339026-7.927553-24.828478-8.525164-37.491892-0.648776-12.650111 0.921999-24.839735 4.735861-36.544311 3.789303-11.715833 10.121522-21.363564 18.995633-28.966729L623.148961 91.8755c17.699104-17.723663 38.937824-26.585495 63.591317-26.585495 24.704658 0 45.893236 8.861832 63.641459 26.585495 8.848529 8.861832 15.480576 18.98233 19.917632 30.374798s6.655584 22.946618 6.655584 34.662451c0 11.704576-2.218528 23.108301-6.655584 34.175357C765.885849 202.169489 759.230266 212.140585 750.381737 221.002416L750.381737 221.002416 750.381737 221.002416zM750.381737 221.002416" p-id="2492"></path></svg>