<?xml version="1.0" standalone="no"?><!DOCTYPE svg PUBLIC "-//W3C//DTD SVG 1.1//EN" "http://www.w3.org/Graphics/SVG/1.1/DTD/svg11.dtd"><svg t="1495788511997" class="icon" style="" viewBox="0 0 1024 1024" version="1.1" xmlns="http://www.w3.org/2000/svg" p-id="1162" xmlns:xlink="http://www.w3.org/1999/xlink" width="200" height="200"><defs><style type="text/css">@font-face { font-family: uc-nexus-iconfont; src: url("chrome-extension://pogijhnlcfmcppgimcaccdkmbedjkmhi/res/font_9qmmi8b8jsxxbt9.woff") format("woff"), url("chrome-extension://pogijhnlcfmcppgimcaccdkmbedjkmhi/res/font_9qmmi8b8jsxxbt9.ttf") format("truetype"); }
</style></defs><path d="M273.61724 221.002416 273.61724 221.002416c-8.848529-8.861832-15.504112-18.832927-19.917632-29.913287-4.437056-11.067057-6.655584-22.471804-6.655584-34.175357 0-11.715833 2.218528-23.269983 6.655584-34.662451s11.06808-21.511943 19.917632-30.374798c17.749246-17.723663 38.937824-26.585495 63.641459-26.585495 24.653493 0 45.892213 8.861832 63.591317 26.585495l352.232227 355.086228c8.874111 7.603165 15.205307 17.249873 18.995633 28.966729 3.813862 11.704576 5.384637 23.8942 4.735861 36.544311-0.597611 12.663414-3.464915 25.152866-8.525164 37.491892-5.060249 12.364609-12.014638 22.959921-20.889773 31.80845L400.850016 931.163615c-17.723663 18.371416-38.937824 27.545356-63.591317 27.545356-24.704658 0-45.893236-9.17394-63.641459-27.545356-8.848529-8.849552-15.504112-18.821671-19.917632-29.888727-4.437056-11.06808-6.655584-22.48613-6.655584-34.17638 0-11.715833 2.218528-23.282263 6.655584-34.649148 4.41352-11.392468 11.06808-21.537526 19.917632-30.41266l286.74677-290.511513L273.61724 221.002416 273.61724 221.002416zM273.61724 221.002416" p-id="1163"></path></svg>