<?xml version="1.0" standalone="no"?><!DOCTYPE svg PUBLIC "-//W3C//DTD SVG 1.1//EN" "http://www.w3.org/Graphics/SVG/1.1/DTD/svg11.dtd"><svg t="1499915599466" class="icon" style="" viewBox="0 0 1024 1024" version="1.1" xmlns="http://www.w3.org/2000/svg" p-id="3001" xmlns:xlink="http://www.w3.org/1999/xlink" width="200" height="200"><defs><style type="text/css"></style></defs><path d="M829.04687 175.945221 725.337597 175.945221l0-50.798966c0-33.412994-28.86868-60.501956-64.474066-60.501956L379.327899 64.644299c-35.610504 0-64.474066 27.088962-64.474066 60.501956l0 50.798966L193.47746 175.945221c-35.637111 0-64.525234 27.089985-64.525234 60.502979l0 49.409316 764.619878 0 0-49.409316C893.572104 203.035206 864.683981 175.945221 829.04687 175.945221L829.04687 175.945221z" p-id="3002"></path><path d="M666.771325 177.344081 372.876706 177.344081 372.876706 121.884978 666.771325 121.884978 666.771325 177.344081Z" p-id="3003"></path><path d="M666.771325 177.344081" p-id="3004"></path><path d="M192.139943 345.383238l0 16.381086 0 115.879194 0 464.548268c0 9.611915 7.792804 17.404392 17.405122 17.404392l605.262925 0c9.612319 0 17.405122-7.792477 17.405122-17.404392L832.213112 477.643518l0-115.879194 0-16.381086L192.139943 345.383238zM364.283644 845.516979l-58.02799 0L306.255653 452.4313l58.02799 0L364.283644 845.516979zM481.412094 845.516979l-58.02799 0L423.384104 452.4313l58.02799 0L481.412094 845.516979zM598.985701 845.516979l-58.022873 0L540.962828 452.4313l58.022873 0L598.985701 845.516979zM716.114151 845.516979l-58.022873 0L658.091278 452.4313l58.022873 0L716.114151 845.516979z" p-id="3005"></path></svg>