<?xml version="1.0" standalone="no"?><!DOCTYPE svg PUBLIC "-//W3C//DTD SVG 1.1//EN" "http://www.w3.org/Graphics/SVG/1.1/DTD/svg11.dtd"><svg t="1510064027524" class="icon" style="" viewBox="0 0 1024 1024" version="1.1" xmlns="http://www.w3.org/2000/svg" p-id="3006" xmlns:xlink="http://www.w3.org/1999/xlink" width="200" height="200"><defs><style type="text/css"></style></defs><path d="M511.600625 0.799375h-0.399688-0.799376C228.421858 1.398907 0.000312 230.220141 0.000312 512.399688c0 281.979703 228.421546 510.800937 510.401249 511.600312H511.600625c282.579235 0 511.600312-229.021077 511.600312-511.600312S794.179859 0.799375 511.600625 0.799375zM531.984699 306.960187c54.157689-1.398907 107.116315-8.593286 157.876659-20.983606 15.387978 60.352849 24.78064 129.898517 26.379391 206.039032H531.984699v-185.055426z m0-40.967993V44.964871c55.156909 15.188134 111.113193 88.730679 146.685402 201.642467-47.163154 11.391101-96.324746 17.985948-146.685402 19.384856zM491.21655 44.36534v221.626854c-50.760343-1.398907-100.321624-8.193599-147.884466-19.784544 35.772053-113.511319 92.327869-187.253708 147.884466-201.84231z m0 262.594847v185.055426h-185.455114c1.398907-76.340359 10.991413-145.886027 26.379391-206.238876 51.160031 12.39032 104.318501 19.584699 159.075723 21.18345z m-226.622951 185.055426H41.367994c4.596409-105.117877 43.765808-201.642467 106.516784-277.982826 45.564403 25.180328 93.92662 45.564403 144.487119 60.952381-16.387198 65.149102-26.379391 138.891491-27.778298 217.030445z m0 40.76815c1.598751 78.138954 11.391101 151.681499 27.978142 216.830601-50.5605 15.387978-98.922717 35.971897-144.48712 60.952381-62.750976-76.340359-101.920375-172.665105-106.516783-277.982826h223.025761z m41.167837 0h185.455114v184.855581c-54.757221 1.398907-107.915691 8.79313-159.075723 21.383295-15.387978-60.352849-24.980484-129.898517-26.379391-206.238876z m185.455114 225.823575v221.826698c-55.556596-14.588603-112.112412-88.330991-147.884466-202.042155 47.562842-11.790788 96.924278-18.385636 147.884466-19.784543zM531.984699 979.834504V758.607338c50.360656 1.398907 99.522248 8.193599 146.685402 19.584699-35.572209 112.711944-91.328649 186.454333-146.685402 201.642467z m0-262.19516v-184.855581h184.056207c-1.398907 76.140515-10.991413 145.486339-26.179548 205.839188-50.760343-12.39032-103.519126-19.584699-157.876659-20.983607z m225.423888-184.855581h224.424668c-4.596409 105.117877-43.765808 201.642467-106.516783 277.982826-45.964091-25.180328-94.725995-45.964091-145.686183-61.352069 16.387198-65.149102 26.179547-138.691647 27.778298-216.630757z m0-40.76815c-1.398907-77.93911-11.391101-151.481655-27.978142-216.630757 50.960187-15.387978 99.722092-36.171741 145.686183-61.352069 62.750976 76.340359 101.920375 172.864949 106.516783 277.982826H757.408587z m89.530055-309.358314c-40.76815 21.583138-83.734582 39.569087-128.49961 53.15847-23.981265-76.939891-57.555035-139.89071-97.323966-181.058548 87.131928 20.783763 165.071038 65.948478 225.823576 127.900078zM400.287588 55.156909c-39.569087 41.167838-72.943013 103.71897-96.724434 180.259172-44.36534-13.589383-87.131928-31.375488-127.500391-52.758782 60.552693-61.551913 137.892272-106.516784 224.224825-127.50039zM176.062763 841.942233c40.368462-21.583138 82.935207-39.369243 127.500391-52.758783 23.781421 76.740047 57.355191 139.291179 96.724434 180.459017-86.532397-20.983607-163.672131-66.148322-224.224825-127.700234z m445.052303 128.099922c39.768931-41.167838 73.342701-104.118657 97.323966-181.258392 44.964871 13.589383 87.931304 31.575332 128.699454 53.15847-60.952381 62.151444-138.691647 107.316159-226.02342 128.099922z" p-id="3007"></path></svg>