<?xml version="1.0" standalone="no"?><!DOCTYPE svg PUBLIC "-//W3C//DTD SVG 1.1//EN" "http://www.w3.org/Graphics/SVG/1.1/DTD/svg11.dtd"><svg t="1500605896836" class="icon" style="" fill="#fff" viewBox="0 0 1280 1024" version="1.1" xmlns="http://www.w3.org/2000/svg" p-id="3138" xmlns:xlink="http://www.w3.org/1999/xlink" width="60" height="48"><defs><style type="text/css">@font-face { font-family: uc-nexus-iconfont; src: url("chrome-extension://pogijhnlcfmcppgimcaccdkmbedjkmhi/res/font_9qmmi8b8jsxxbt9.woff") format("woff"), url("chrome-extension://pogijhnlcfmcppgimcaccdkmbedjkmhi/res/font_9qmmi8b8jsxxbt9.ttf") format("truetype"); }
</style></defs><path d="M912 692.48c26.026667 26.453333 26.026667 68.693333 0 94.72-26.026667 26.026667-68.266667 26.026667-94.293333 0l-168.106667-168.96-168.96 168.96c-26.026667 26.026667-68.266667 26.026667-94.293333 0-26.026667-26.026667-26.026667-68.266667 0-94.72l169.386667-169.386667-169.386667-170.24c-26.026667-26.453333-26.026667-68.693333 0-94.72 26.026667-26.026667 68.266667-26.026667 94.293333 0l169.386667 170.666667 170.666667-170.666667c26.026667-26.026667 68.266667-26.026667 94.293333 0s26.026667 68.266667 0 94.72l-170.666667 170.666667L912 692.48zM851.84 0l-424.106667 0-299.52 299.946667 0 424.106667 299.52 299.946667 424.106667 0 299.946667-299.946667L1151.786667 299.946667 851.84 0z" p-id="3139"></path></svg>