<?xml version="1.0" standalone="no"?><!DOCTYPE svg PUBLIC "-//W3C//DTD SVG 1.1//EN" "http://www.w3.org/Graphics/SVG/1.1/DTD/svg11.dtd"><svg t="1494298380638" class="icon" style="" viewBox="0 0 1024 1024" version="1.1" xmlns="http://www.w3.org/2000/svg" p-id="5297" xmlns:xlink="http://www.w3.org/1999/xlink" width="200" height="200"><defs><style type="text/css">@font-face { font-family: uc-nexus-iconfont; src: url("chrome-extension://pogijhnlcfmcppgimcaccdkmbedjkmhi/res/font_9qmmi8b8jsxxbt9.woff") format("woff"), url("chrome-extension://pogijhnlcfmcppgimcaccdkmbedjkmhi/res/font_9qmmi8b8jsxxbt9.ttf") format("truetype"); }
</style></defs><path d="M161.304268 897.992121c-53.165874 0-96.420003-48.559972-96.420003-108.247376L64.884264 241.780649c0-62.932308 43.25413-114.13241 96.420003-114.13241l453.524191 0c53.165874 0 96.420003 51.199079 96.420003 114.131387l0 58.635445c0 15.655562-12.736069 28.392654-28.39163 28.392654s-28.39163-12.737092-28.39163-28.392654l0-58.635445c0-26.738991-17.781992-48.492434-39.637766-48.492434L161.304268 193.287191c-21.855774 0-39.635719 21.753443-39.635719 48.492434l0 542.080086c0 26.738991 17.780969 48.492434 39.636742 48.492434l453.524191 0c21.855774 0 39.637766-21.754466 39.637766-48.493457l0-58.635445c0-15.655562 12.736069-28.39163 28.39163-28.39163s28.39163 12.736069 28.39163 28.39163l0 58.635445c0 62.933331-43.25413 114.13241-96.420003 114.13241L161.304268 897.991098zM772.998851 717.698872c-7.662517 0-14.843056-3.168156-20.219507-8.921183-10.868535-11.623735-10.866489-30.516014 0.00614-42.114167l109.334127-116.966968c0.085958-0.092098 0.160659-0.171915 0.066515-0.38681-0.093121-0.215918-0.201591-0.215918-0.327458-0.215918L386.362047 549.093826c-15.655562 0-28.392654-13.446243-28.392654-29.973662 0-16.528442 12.737092-29.974685 28.392654-29.974685l475.494575 0c0.125867 0 0.234337 0 0.327458-0.214894 0.093121-0.214894 0.019443-0.294712-0.066515-0.38681L752.779344 371.597273c-10.861372-11.616572-10.860349-30.517037 0.001023-42.132586 5.375427-5.752004 12.555967-8.92016 20.218484-8.92016 7.661494 0 14.842033 3.168156 20.218484 8.921183l156.451238 167.369915c5.480828 5.89015 8.302083 13.793144 7.967462 22.286586 0.333598 8.493441-2.486634 16.395412-7.958252 22.276353L793.217335 708.777689C787.840884 714.530716 780.660344 717.698872 772.998851 717.698872z" p-id="5298"></path></svg>