<?xml version="1.0" standalone="no"?><!DOCTYPE svg PUBLIC "-//W3C//DTD SVG 1.1//EN" "http://www.w3.org/Graphics/SVG/1.1/DTD/svg11.dtd"><svg t="1494298181044" class="icon" style="" viewBox="0 0 1224 1024" version="1.1" xmlns="http://www.w3.org/2000/svg" p-id="3881" xmlns:xlink="http://www.w3.org/1999/xlink" width="239.0625" height="200"><defs><style type="text/css">@font-face { font-family: uc-nexus-iconfont; src: url("chrome-extension://pogijhnlcfmcppgimcaccdkmbedjkmhi/res/font_9qmmi8b8jsxxbt9.woff") format("woff"), url("chrome-extension://pogijhnlcfmcppgimcaccdkmbedjkmhi/res/font_9qmmi8b8jsxxbt9.ttf") format("truetype"); }
</style></defs><path d="M1077.704542 512c0-283.927273-228.072727-512.003253-512-512.003253s-512 228.07598-512 512.003253 228.072727 512 512 512c104.862258 0 199.374576-29.719484 280.274544-83.235373 6.072702-3.825119 10.564615-9.995401 11.260683-17.694428a23.851699 23.851699 0 0 0-21.597612-25.907376c-6.980192-0.757868-15.898964 4.309764-16.419388 4.582987-74.049882 49.762328-158.101671 75.711988-253.521479 75.711988-256 0-465.454545-209.454545-465.454546-465.454545s209.454545-465.454545 465.454546-465.454546 465.454545 209.454545 465.454545 465.454546c0 132.56835-52.58563 248.905965-142.297033 333.888012-0.250454 0.328518-5.474214 5.28556-6.235335 14.031942a23.851699 23.851699 0 0 0 21.597612 25.907376c9.748199 1.089639 18.605171-6.534578 18.829604-6.697212 95.41005-92.863223 154.653859-222.663566 154.653859-367.133371z" fill="" p-id="3882"></path><path d="M800.757461 465.454545c18.621434 53.525646 65.166889 72.143828 83.781819 114.03799 9.309091 23.272727 46.548707 41.890909 76.801626 58.180192 2.328899-11.634737 6.983445-23.272727 9.309091-32.581818 0-4.654545 2.328899-9.309091 2.328899-13.963636 2.325646-9.309091 2.325646-16.292535 4.654545-25.601627 0-4.654545 0-6.983445 2.328899-11.634737 0-11.634737 2.325646-25.601626 2.325647-37.236364 2.328899-18.618182 2.328899-30.252919 0-44.216555 0-4.654545 0-6.983445-2.325647-11.63799 0-9.309091-2.328899-18.618182-4.657798-25.601626 0-4.654545-2.325646-9.309091-2.325646-13.963637-2.328899-9.309091-4.654545-16.292535-6.983445-25.601626 0-4.654545-2.328899-6.980192-2.328899-11.63799-4.654545-11.634737-6.980192-23.269475-11.634737-32.581818l-6.983445-13.963637c-2.328899-6.983445-6.980192-11.63799-9.30909-18.618181-2.328899-4.657798-6.980192-11.63799-9.309091-16.292536-2.328899-4.654545-4.654545-9.309091-9.309091-13.963636s-6.980192-11.63799-11.634738-16.292536c-2.328899-2.325646-4.654545-6.980192-6.983444-9.30909-16.289283-20.943828-34.910717-41.890909-55.854546-60.509091-2.325646 0-2.325646-2.325646-4.654545-2.325647-6.983445-6.983445-13.963636-11.63799-23.272727-18.618182h-2.328899c-32.581818-25.598374-69.818182-46.542202-109.383445-60.50909-11.63799 18.618182-23.272727 41.890909-37.236363 51.2-20.943828 11.634737-18.618182 58.180192 20.943828 53.528899 0 0-11.63799 11.634737 0 53.525646 11.634737 41.890909 30.252919 51.2 88.436363 27.927273 25.598374-9.309091 44.219808-4.654545 41.89091 20.943828-6.976939 53.535404-46.538949 51.209758-16.286031 137.317222zM824.030189 609.745455c-16.289283 9.309091-16.289283 32.581818-2.328899 44.219808 13.963636 11.634737 41.890909 27.927273 51.2 0 9.312344-27.927273-32.578566-53.528899-48.871101-44.219808zM509.846744 868.074354c9.309091 16.289283 41.894162 62.834737 53.528899-2.328899 11.63799-65.163636 32.581818-102.4 58.180192-134.981819 25.601626-32.581818 51.2-74.472727 2.328899-116.363636-48.874354-41.890909-44.219808-60.509091-107.057798-60.509091s-102.4 13.963636-86.107465 102.4c16.289283 88.439616 62.834737 48.874354 58.180192 114.03799-4.651293 65.163636 11.641243 81.452919 20.947081 97.745455zM353.921098 463.125646c34.910717-18.618182 46.545455-18.618182 55.854545 18.618182s39.56201 13.963636 41.890909-20.943828c2.328899-32.581818 55.854545-67.492535 93.090909-83.781818 37.236364-16.289283 69.818182-20.947081 65.163637-48.874354-4.654545-27.927273-13.963636-48.874354-69.818182-48.874353s-32.581818 76.798374-79.127273 30.256171c-46.545455-46.545455 9.309091-32.581818 32.581818-44.219808 23.272727-11.63799 46.545455-53.528899 6.983445-55.854545-39.56201-2.325646-32.581818 18.618182-65.163636 6.983444-32.581818-11.63799-46.545455 41.890909-67.492536 32.581818-13.963636-4.657798-48.871101-32.581818-74.472727-58.183444-48.874354 39.565263-86.107465 90.765263-111.709091 151.274354 6.983445 79.127273 48.874354 118.692535 48.874354 118.692535s20.943828 51.2 153.6 114.03799c0 0 25.601626 2.328899-4.654546-27.927273s-60.509091-65.166889-25.601626-83.785071z" fill="" p-id="3883"></path></svg>