<?xml version="1.0" standalone="no"?><!DOCTYPE svg PUBLIC "-//W3C//DTD SVG 1.1//EN" "http://www.w3.org/Graphics/SVG/1.1/DTD/svg11.dtd"><svg class="icon" width="200px" height="200.00px" viewBox="0 0 1024 1024" version="1.1" xmlns="http://www.w3.org/2000/svg"><path fill="#333333" d="M864 832H192V160c0-19.2-12.8-32-32-32s-32 12.8-32 32v672c0 35.2 28.8 64 64 64h672c19.2 0 32-12.8 32-32s-12.8-32-32-32zM288 768c-3.2 0-9.6 0-12.8-3.2-16-6.4-22.4-25.6-12.8-41.6l96-192c6.4-12.8 22.4-22.4 38.4-16l70.4 22.4 83.2-166.4c6.4-12.8 22.4-22.4 38.4-16l76.8 25.6 115.2-115.2c12.8-12.8 32-12.8 44.8 0s12.8 32 0 44.8l-128 128c-9.6 9.6-22.4 12.8-32 6.4l-70.4-22.4-83.2 166.4c-6.4 12.8-22.4 22.4-38.4 16l-70.4-22.4-83.2 166.4c-9.6 12.8-19.2 19.2-32 19.2z" /></svg>