<?xml version="1.0" standalone="no"?><!DOCTYPE svg PUBLIC "-//W3C//DTD SVG 1.1//EN" "http://www.w3.org/Graphics/SVG/1.1/DTD/svg11.dtd"><svg t="1506395156410" class="icon" style="" viewBox="0 0 1024 1024" version="1.1" xmlns="http://www.w3.org/2000/svg" p-id="2909" xmlns:xlink="http://www.w3.org/1999/xlink" width="200" height="200"><defs><style type="text/css"></style></defs><path d="M512 43.404c-258.827 0-468.596 209.77-468.596 468.596s209.77 468.596 468.596 468.596 468.596-209.77 468.596-468.596c0-258.827-209.77-468.596-468.596-468.596zM354.948 711.153h-100.398v-34.595l100.398-77.245v111.841zM481.341 711.153h-100.398v-130.419l51.89-39.902 48.508 47.774v122.549zM607.731 711.153h-100.398v-84.48l100.398-98.844v183.323zM734.124 711.153h-100.398v-209.312l57.202-56.378 43.198 39.631v226.062zM715.089 406.111l-24.987-24.62-177.552 174.716-77.702-76.513-180.575 137.374v-58.85l184.599-143.233 73.766 72.579 142.684-140.307-27.548-27.181 118.523-30.659-31.21 116.691z" p-id="2910"></path></svg>