<?xml version="1.0" standalone="no"?><!DOCTYPE svg PUBLIC "-//W3C//DTD SVG 1.1//EN" "http://www.w3.org/Graphics/SVG/1.1/DTD/svg11.dtd"><svg t="1506394922211" class="icon" style="" viewBox="0 0 1024 1024" version="1.1" xmlns="http://www.w3.org/2000/svg" p-id="2134" xmlns:xlink="http://www.w3.org/1999/xlink" width="200" height="200"><defs><style type="text/css"></style></defs><path d="M453.815 259.851c0-103.002 83.47-186.468 186.42-186.468s186.478 83.468 186.478 186.468c0 102.945-83.529 186.413-186.478 186.413-102.948 0-186.42-83.468-186.42-186.413z m265.502 205.516H561.156c-64.887 0-123.707 14.19-166.786 56.759h253.195v383.125H524.244c30.973 15.281 30.973 17.254 30.973 26.29 0 3.396 0 8.18-2.941 12.017 38.788 4.319 75.031 6.661 108.547 6.661 175.438 0 277.166-49.314 283.431-52.483l12.489-5.584h3.012V697.67c0-131.587-108.689-232.305-240.338-232.305h-0.1zM526.765 933.47c0 9.491-76.902 17.148-173.316 17.148-96.4 0-174.577-7.659-174.577-17.148 0-6.762 41.89-12.588 98.652-15.372v-25.943H64.667V537.408h555.611v354.747h-215.04v25.118c72.044 2.274 121.529 8.653 121.529 16.197z m50.94-70.786V564.697H107.238v297.987h470.467z m-386.416-27.289h39.297V665.117h-39.297v170.278z m58.945 0h27.29V707.686h-27.29v127.709z m41.479 0h39.297V622.547h-39.297v212.848z m148.453 0h39.297V665.117h-39.297v170.278z m-48.028 0h28.381V707.686h-28.381v127.709z m-41.48 0h27.29V649.836h-27.29v185.559z m-6.285 3.399z" p-id="2135"></path></svg>