<?xml version="1.0" standalone="no"?><!DOCTYPE svg PUBLIC "-//W3C//DTD SVG 1.1//EN" "http://www.w3.org/Graphics/SVG/1.1/DTD/svg11.dtd"><svg t="1506394507236" class="icon" style="" viewBox="0 0 1024 1024" version="1.1" xmlns="http://www.w3.org/2000/svg" p-id="1432" xmlns:xlink="http://www.w3.org/1999/xlink" width="200" height="200"><defs><style type="text/css"></style></defs><path d="M512 11.378c-277.618 0-500.622 223.005-500.622 500.622s223.005 500.622 500.622 500.622c277.618 0 500.622-223.005 500.622-500.622s-223.005-500.622-500.622-500.622zM762.311 131.982c0 4.551 0 11.378 0 15.929 0 47.787-4.551 93.298-13.653 138.809-31.858 6.827-54.613 34.133-54.613 65.991 0 18.205 6.827 36.409 20.48 47.787-15.929 36.409-31.858 72.818-54.613 106.951-84.195-95.573-143.36-216.178-163.84-350.435 52.338-31.858 109.227-56.889 168.391-72.818 34.133 11.378 68.267 27.307 97.849 47.787zM666.738 580.267c40.96 38.685 84.195 72.818 131.982 100.125-47.787 9.102-97.849 13.653-150.187 13.653-22.755 0-45.511-2.275-68.267-2.275 0-4.551 0-9.102-2.275-13.653 31.858-29.582 61.44-63.715 88.747-97.849zM512 56.889c25.031 0 50.062 2.275 75.093 6.827-31.858 13.653-63.715 27.307-95.573 43.235-2.275-15.929-2.275-31.858-2.275-47.787 6.827-2.275 15.929-2.275 22.755-2.275zM634.88 546.133c-25.031 34.133-52.338 63.715-81.92 93.298-11.378-9.102-25.031-13.653-40.96-13.653-29.582 0-54.613 18.205-63.715 45.511-91.022-22.755-177.493-56.889-254.862-104.675 20.48-77.369 54.613-150.187 97.849-213.902 4.551 0 9.102 2.275 15.929 2.275 38.685 0 68.267-29.582 68.267-68.267 0-9.102-2.275-18.205-4.551-27.307 27.307-27.307 54.613-50.062 84.195-72.818 25.031 136.533 88.747 259.413 179.769 359.538zM125.155 750.933c-40.96-68.267-65.991-145.635-68.267-229.831 27.307 22.755 54.613 45.511 84.195 63.715-9.102 50.062-15.929 102.4-15.929 154.738 0 4.551 0 9.102 0 11.378zM154.738 539.307c-34.133-22.755-63.715-47.787-93.298-75.093 22.755-204.8 182.045-368.64 384.569-400.498 0 25.031 2.275 47.787 4.551 72.818-38.685 27.307-75.093 56.889-109.227 88.747-11.378-6.827-22.755-9.102-34.133-9.102-38.685 0-68.267 29.582-68.267 68.267 0 15.929 6.827 29.582 15.929 43.235-45.511 63.715-79.645 134.258-100.125 211.627zM175.218 816.925c-2.275-25.031-4.551-50.062-4.551-77.369 0-43.235 4.551-86.471 13.653-127.431 81.92 47.787 170.667 84.195 263.965 104.675 0 2.275 0 2.275 2.275 4.551-79.645 52.338-170.667 86.471-268.515 102.4-4.551-2.275-4.551-4.551-6.827-6.827zM512 967.111c-111.502 0-211.627-40.96-291.271-106.951 95.573-18.205 182.045-54.613 259.413-106.951 9.102 6.827 20.48 9.102 31.858 9.102 22.755 0 40.96-11.378 54.613-27.307 27.307 2.275 54.613 4.551 81.92 4.551 72.818 0 143.36-9.102 211.627-25.031 15.929 6.827 31.858 15.929 47.787 20.48-77.369 138.809-225.28 232.107-395.947 232.107zM864.711 666.738c-63.715-31.858-122.88-75.093-172.942-125.155 25.031-38.685 45.511-79.645 63.715-120.605 2.275 0 4.551 0 6.827 0 38.685 0 68.267-29.582 68.267-68.267 0-27.307-15.929-50.062-38.685-61.44 9.102-40.96 13.653-81.92 13.653-125.155 97.849 84.195 159.289 207.075 159.289 345.885 0 45.511-6.827 86.471-18.205 127.431-25.031 11.378-52.338 20.48-81.92 27.307z" fill="#707070" p-id="1433"></path></svg>