<?xml version="1.0" standalone="no"?><!DOCTYPE svg PUBLIC "-//W3C//DTD SVG 1.1//EN" "http://www.w3.org/Graphics/SVG/1.1/DTD/svg11.dtd"><svg t="1506394770815" class="icon" style="" viewBox="0 0 1024 1024" version="1.1" xmlns="http://www.w3.org/2000/svg" p-id="6761" xmlns:xlink="http://www.w3.org/1999/xlink" width="200" height="200"><defs><style type="text/css"></style></defs><path d="M981.333333 0H42.666667C21.333333 0 0 21.333333 0 42.666667v682.666666c0 21.333333 21.333333 42.666667 42.666667 42.666667h362.666666c12.8 0 21.333333-8.533333 21.333334-21.333333s-8.533333-21.333333-21.333334-21.333334H42.666667V42.666667h938.666666v682.666666H554.666667c-21.333333 0-42.666667 21.333333-42.666667 42.666667v213.333333H320c-12.8 0-21.333333 8.533333-21.333333 21.333334s8.533333 21.333333 21.333333 21.333333h426.666667c12.8 0 21.333333-8.533333 21.333333-21.333333s-8.533333-21.333333-21.333333-21.333334H554.666667v-213.333333h426.666666c21.333333 0 42.666667-21.333333 42.666667-42.666667V42.666667c0-21.333333-21.333333-42.666667-42.666667-42.666667z" fill="" p-id="6762"></path><path d="M640 384c-12.8 0-25.6 8.533333-34.133333 17.066667l-42.666667 64-98.133333-226.133334c-4.266667-17.066667-21.333333-25.6-38.4-25.6s-29.866667 8.533333-38.4 25.6L315.733333 384H128v42.666667h213.333333l85.333334-170.666667 110.933333 264.533333c8.533333 17.066667 25.6 17.066667 38.4 4.266667L640 426.666667h256V384h-256z" fill="" p-id="6763"></path></svg>