<?xml version="1.0" standalone="no"?><!DOCTYPE svg PUBLIC "-//W3C//DTD SVG 1.1//EN" "http://www.w3.org/Graphics/SVG/1.1/DTD/svg11.dtd"><svg t="1506394712501" class="icon" style="" viewBox="0 0 1024 1024" version="1.1" xmlns="http://www.w3.org/2000/svg" p-id="5515" xmlns:xlink="http://www.w3.org/1999/xlink" width="200" height="200"><defs><style type="text/css"></style></defs><path d="M535.76 575.184c56.864-41.728 93.904-110.768 93.904-188.784 0-97.12-57.616-180.592-139.168-214.912-25.808-11.312-53.872-17.168-83.424-17.168-122.704 0-222.576 104.144-222.576 232.08 0 78 37.408 147.056 93.904 188.784C130.24 630.576 24 777.632 24 951.2l766.128 0c0-60.464-12.72-117.408-36.288-168.896C711.2 686.352 632.272 611.456 535.76 575.184zM773.68 447.648c50.496-37.44 83.424-98.688 83.424-168.112 0-114.288-88.656-206.72-198.272-206.72-50.128 0-96.144 19.504-130.928 51.872 93.52 46.816 157.872 146.656 157.872 261.728 0 62.416-19.456 122.48-54.24 171.632 83.792 51.872 148.144 131.44 183.296 224.272L1000 782.32C1000 627.84 905.36 496.784 773.68 447.648z" p-id="5516"></path></svg>