<?xml version="1.0" standalone="no"?><!DOCTYPE svg PUBLIC "-//W3C//DTD SVG 1.1//EN" "http://www.w3.org/Graphics/SVG/1.1/DTD/svg11.dtd"><svg t="1498016088967" class="icon" style="" viewBox="0 0 1024 1024" version="1.1" xmlns="http://www.w3.org/2000/svg" p-id="2788" xmlns:xlink="http://www.w3.org/1999/xlink" width="200" height="200"><defs><style type="text/css"></style></defs><path d="M853.713662 67.373457 170.286338 67.373457c-56.746422 0-102.912881 46.166459-102.912881 102.912881l0 683.427324c0 56.746422 46.166459 102.912881 102.912881 102.912881l683.428348 0c56.745399 0 102.911858-46.166459 102.911858-102.912881L956.626543 170.285315C956.626543 113.538893 910.460084 67.373457 853.713662 67.373457zM915.694295 853.713662c0 34.17638-27.804253 61.980633-61.97961 61.980633L170.286338 915.694295c-34.17638 0-61.980633-27.804253-61.980633-61.980633L108.305705 170.285315c0-34.17638 27.804253-61.980633 61.980633-61.980633l683.428348 0c34.175357 0 61.97961 27.804253 61.97961 61.980633L915.694295 853.713662z" p-id="2789"></path><path d="M736.104057 491.533876l-448.208115 0c-11.30344 0-20.466124 9.162684-20.466124 20.466124s9.162684 20.466124 20.466124 20.466124l448.208115 0c11.30344 0 20.466124-9.162684 20.466124-20.466124S747.407498 491.533876 736.104057 491.533876z" p-id="2790"></path></svg>