<?xml version="1.0" standalone="no"?><!DOCTYPE svg PUBLIC "-//W3C//DTD SVG 1.1//EN" "http://www.w3.org/Graphics/SVG/1.1/DTD/svg11.dtd"><svg t="1505443822175" class="icon" style="" viewBox="0 0 1024 1024" version="1.1" xmlns="http://www.w3.org/2000/svg" p-id="5273" xmlns:xlink="http://www.w3.org/1999/xlink" width="200" height="200"><defs><style type="text/css"></style></defs><path d="M768 256 256 256C238.304 256 224 270.336 224 288 224 305.696 238.304 320 256 320L768 320C785.696 320 800 305.696 800 288 800 270.336 785.696 256 768 256L768 256ZM960 896C960 931.168 925.248 960.384 890.144 960.384L127.168 960.384C92.064 960.384 63.584 931.904 63.584 896.736L63.584 133.28C63.584 98.112 92.864 64 128 64L896 64C931.136 64 960 92.864 960 128L960 896 960 896ZM896 0 128 0C57.792 0 0 63.008 0 133.28L0 896.736C0 967.04 56.928 1024 127.168 1024L890.144 1024C960.384 1024 1024 966.272 1024 896L1024 128C1024 57.728 966.208 0 896 0L896 0ZM768 640 256 640C238.304 640 224 654.336 224 672 224 689.696 238.304 704 256 704L768 704C785.696 704 800 689.696 800 672 800 654.336 785.696 640 768 640L768 640ZM768 448 256 448C238.304 448 224 462.336 224 480 224 497.696 238.304 512 256 512L768 512C785.696 512 800 497.696 800 480 800 462.336 785.696 448 768 448L768 448Z" p-id="5274"></path></svg>