<?xml version="1.0" standalone="no"?><!DOCTYPE svg PUBLIC "-//W3C//DTD SVG 1.1//EN" "http://www.w3.org/Graphics/SVG/1.1/DTD/svg11.dtd"><svg t="1496657584096" class="icon" style="" viewBox="0 0 1024 1024" version="1.1" xmlns="http://www.w3.org/2000/svg" p-id="2486" xmlns:xlink="http://www.w3.org/1999/xlink" width="48" height="48"><defs><style type="text/css">@font-face { font-family: uc-nexus-iconfont; src: url("chrome-extension://pogijhnlcfmcppgimcaccdkmbedjkmhi/res/font_9qmmi8b8jsxxbt9.woff") format("woff"), url("chrome-extension://pogijhnlcfmcppgimcaccdkmbedjkmhi/res/font_9qmmi8b8jsxxbt9.ttf") format("truetype"); }
</style></defs><path d="M860.8 103.1h4.3L528.2 64h-25.9l-343.4 39.1h4.3C139.4 107.4 120 127 120 153v312.4S152.4 853.7 510.9 960h4.3C845.7 862.4 897.5 521.8 904 471.9V144.3c-2.2-23.9-19.4-41.2-43.2-41.2zM696.7 422l-216 216.9c-2.2 2.2-6.5 4.3-8.6 6.5-8.6 4.3-21.6 2.2-28.1-6.5L323 517.4c-10.8-10.8-10.8-26 0-36.9s25.9-10.8 36.7 0l101.5 102 196.5-197.4c10.8-10.8 25.9-10.8 36.7 0 13.1 8.7 13.1 26 2.3 36.9z" fill="" p-id="2487"></path></svg>