<?xml version="1.0" standalone="no"?><!DOCTYPE svg PUBLIC "-//W3C//DTD SVG 1.1//EN" "http://www.w3.org/Graphics/SVG/1.1/DTD/svg11.dtd"><svg t="1506417365113" class="icon" style="" viewBox="0 0 1025 1024" version="1.1" xmlns="http://www.w3.org/2000/svg" p-id="2337" xmlns:xlink="http://www.w3.org/1999/xlink" width="200.1953125" height="200"><defs><style type="text/css"></style></defs><path d="M505.204965 0.076328C222.450833 3.892717-3.709034 236.133986 0.076328 518.919145 3.86169 801.487112 236.133986 1027.709034 518.919145 1023.923672 801.549167 1020.107283 1027.740062 787.866014 1023.923672 505.080855 1020.200365 222.48186 787.897042-3.709034 505.204965 0.076328L505.204965 0.076328 505.204965 0.076328ZM512.279248 877.690793 509.517795 877.690793C467.4134 876.418664 437.720027 844.925693 438.899074 802.821297 440.078122 761.49259 470.485128 731.426887 511.224311 731.426887L513.706516 731.488942C556.989958 732.761072 586.373055 763.974795 585.100926 807.258238 583.921878 848.680027 553.949258 877.690793 512.279248 877.690793L512.279248 877.690793 512.279248 877.690793ZM699.37542 496.486221C688.236527 512 663.941949 531.299141 633.224667 554.849057L599.373602 577.902532C580.819123 592.144181 569.649202 605.517058 565.460482 618.641715 562.078478 629.098002 560.5271 631.766372 560.216824 652.865111L560.154769 658.263906 431.08013 658.263906 431.452461 647.466316C433.034866 603.158964 434.151858 577.188898 452.768393 555.624746 481.965324 521.866763 546.409561 480.941415 549.108959 479.234899 558.355171 472.346781 566.081033 464.589892 571.945241 456.274507 585.473256 437.875165 591.430547 423.32324 591.430547 409.143647 591.430547 389.348065 585.473256 371.072834 573.74484 354.814393 562.419781 339.083422 540.917684 331.140367 509.828071 331.140367 478.986679 331.140367 457.918967 340.820965 445.259724 360.616547 432.197122 380.970624 425.681335 402.286556 425.681335 424.129957L425.681335 429.590807 292.60414 429.590807 292.821333 423.881737C296.234365 343.489335 325.338214 285.653968 379.326164 251.895985 413.146202 230.331832 455.312652 219.44116 504.491331 219.44116 568.842485 219.44116 623.326877 234.892883 666.082851 265.268862 709.428349 296.079227 731.426887 342.27926 731.426887 402.503749 731.426887 436.230704 720.660325 467.878813 699.37542 496.610331L699.37542 496.486221 699.37542 496.486221Z" p-id="2338"></path></svg>