<?xml version="1.0" standalone="no"?><!DOCTYPE svg PUBLIC "-//W3C//DTD SVG 1.1//EN" "http://www.w3.org/Graphics/SVG/1.1/DTD/svg11.dtd"><svg t="1496887714338" class="icon" style="" viewBox="0 0 1026 1024" version="1.1" xmlns="http://www.w3.org/2000/svg" p-id="1108" xmlns:xlink="http://www.w3.org/1999/xlink" width="200.390625" height="200"><defs><style type="text/css"></style></defs><path d="M513.617308 0C230.84528 0 1.609181 229.227079 1.609181 511.997303s229.236099 512.002715 512.006323 512.002715 511.997303-229.230687 511.997303-512.002715S796.387532 0 513.617308 0zM510.288901 867.554093c-30.688088 0-55.565445-24.877357-55.565445-55.565445s24.877357-55.565445 55.565445-55.565445c30.688088 0 55.560033 24.877357 55.560033 55.565445S540.976989 867.554093 510.288901 867.554093zM711.144247 418.376176c-10.050164 21.161088-31.532366 47.483461-64.354603 79.039279-32.869141 31.55221-54.625553 53.977912-65.368459 67.300558-10.739297 13.349706-18.900658 29.275544-24.386666 47.804575-5.532912 18.532639-7.973743 43.428037-7.326102 74.63568l-85.836805 0c0-36.417637 2.902659-65.505564 8.756685-87.310685 5.857634-21.779865 14.661224-40.82304 26.369277-57.069993 11.711661-16.248757 32.825844-40.151947 63.387651-71.704157 30.563611-31.532366 50.249015-54.470408 59.0057-68.781654 8.80359-14.289597 13.183737-35.611243 13.183737-63.890971 0-28.303181-10.097068-53.337487-30.238888-75.117352-20.147232-21.779865-49.419168-32.685131-87.772513-32.685131-86.525939 0-129.766358 51.378328-129.766358 154.127767l-85.836805 0c1.293478-46.832212 6.82639-82.420002 16.550027-106.828316 9.770542-24.386666 25.400522-46.170138 46.83582-65.345007 21.482202-19.178476 45.358332-33.330969 71.727609-42.432221 26.325981-9.106664 54.120429-13.67082 83.392366-13.67082 59.18971 0 108.424868 17.40513 147.793873 52.184722 39.369004 34.804848 59.0057 81.153584 59.0057 139.031775C726.265495 373.687133 721.237707 397.265601 711.144247 418.376176z" p-id="1109"></path></svg>