<?xml version="1.0" standalone="no"?><!DOCTYPE svg PUBLIC "-//W3C//DTD SVG 1.1//EN" "http://www.w3.org/Graphics/SVG/1.1/DTD/svg11.dtd"><svg t="1499915417076" class="icon" style="" viewBox="0 0 1025 1024" version="1.1" xmlns="http://www.w3.org/2000/svg" p-id="997" xmlns:xlink="http://www.w3.org/1999/xlink" width="200.1953125" height="200"><defs><style type="text/css"></style></defs><path d="M863.488 603.428571q0 2.852571-0.585143 3.986286-36.571429 153.161143-153.161143 248.283429t-273.152 95.158857q-83.419429 0-161.426286-31.414857t-139.154286-89.709714l-73.728 73.728q-10.861714 10.861714-25.709714 10.861714t-25.709714-10.861714-10.861714-25.709714l0-256q0-14.848 10.861714-25.709714t25.709714-10.861714l256 0q14.848 0 25.709714 10.861714t10.861714 25.709714-10.861714 25.709714l-78.299429 78.299429q40.557714 37.705143 92.013714 58.294857t106.861714 20.553143q76.580571 0 142.848-37.156571t106.276571-102.290286q6.290286-9.728 30.281143-66.852571 4.571429-13.129143 17.152-13.129143l109.714286 0q7.424 0 12.873143 5.412571t5.412571 12.873143zM877.787429 146.285714l0 256q0 14.848-10.861714 25.709714t-25.709714 10.861714l-256 0q-14.848 0-25.709714-10.861714t-10.861714-25.709714 10.861714-25.709714l78.848-78.848q-84.553143-78.299429-199.424-78.299429-76.580571 0-142.848 37.156571t-106.276571 102.290286q-6.290286 9.728-30.281143 66.852571-4.571429 13.129143-17.152 13.129143l-113.700571 0q-7.424 0-12.873143-5.412571t-5.412571-12.873143l0-3.986286q37.156571-153.161143 154.294857-248.283429t274.285714-95.158857q83.419429 0 162.304 31.707429t139.995429 89.417143l74.276571-73.728q10.861714-10.861714 25.709714-10.861714t25.709714 10.861714 10.861714 25.709714z" p-id="998"></path></svg>