<?xml version="1.0" standalone="no"?><!DOCTYPE svg PUBLIC "-//W3C//DTD SVG 1.1//EN" "http://www.w3.org/Graphics/SVG/1.1/DTD/svg11.dtd"><svg t="1499915570678" class="icon" style="" viewBox="0 0 1024 1024" version="1.1" xmlns="http://www.w3.org/2000/svg" p-id="2342" xmlns:xlink="http://www.w3.org/1999/xlink" width="200" height="200"><defs><style type="text/css"></style></defs><path d="M987.428571 468.114286a528.749714 528.749714 0 0 1-153.234285 319.049143 214.235429 214.235429 0 0 1-21.942857 25.161142l-8.118858 7.972572a754.102857 754.102857 0 0 1-18.358857 16.822857l-10.020571 8.704c-17.188571 14.628571-36.571429 29.915429-56.027429 45.056l-17.773714 13.458286-23.625143 17.554285-23.113143 16.749715-16.603428 11.776c-44.909714 31.890286-79.36 54.564571-79.36 54.564571l-3.218286 2.633143-1.024 0.804571-2.267429 1.609143-1.170285 0.731429-2.267429 1.462857-1.097143 0.658286-2.706285 1.536h-0.658286l-3.291429 1.609143-0.950857 0.438857-2.413714 1.024-1.170286 0.438857-2.194286 0.804571-1.097142 0.438857-2.340572 0.731429h-0.877714l-3.072 0.877714h-0.585143l-2.340571 0.585143h-1.024l-1.901715 0.438857h-6.217143V1024h-6.802285v-0.585143a82.139429 82.139429 0 0 1-43.885715-18.651428 1704.96 1704.96 0 0 1-275.017142-217.819429A528.676571 528.676571 0 0 1 36.571429 468.114286V224.182857 219.428571a74.166857 74.166857 0 0 1 75.190857-71.753142V147.017143 146.285714h6.144A512 512 0 0 0 453.339429 23.478857 73.654857 73.654857 0 0 1 485.376 0h53.248a74.093714 74.093714 0 0 1 21.942857 12.653714 68.242286 68.242286 0 0 1 10.313143 10.605715A511.561143 511.561143 0 0 0 906.020571 146.285714h6.144v1.389715A74.166857 74.166857 0 0 1 987.428571 219.428571v248.685715zM512 146.285714A182.857143 182.857143 0 0 0 475.428571 508.342857v259.657143a36.571429 36.571429 0 1 0 73.142858 0V658.285714h36.571428a36.571429 36.571429 0 1 0 0-73.142857H548.571429V508.342857A182.857143 182.857143 0 0 0 512 146.285714z m0 292.571429A109.714286 109.714286 0 1 1 621.714286 329.142857 109.714286 109.714286 0 0 1 512 438.857143z" p-id="2343"></path></svg>