<?xml version="1.0" standalone="no"?><!DOCTYPE svg PUBLIC "-//W3C//DTD SVG 1.1//EN" "http://www.w3.org/Graphics/SVG/1.1/DTD/svg11.dtd"><svg t="1496661973580" class="icon" style="" viewBox="0 0 1024 1024" version="1.1" xmlns="http://www.w3.org/2000/svg" p-id="10507" xmlns:xlink="http://www.w3.org/1999/xlink" width="48" height="48"><defs><style type="text/css">@font-face { font-family: uc-nexus-iconfont; src: url("chrome-extension://pogijhnlcfmcppgimcaccdkmbedjkmhi/res/font_9qmmi8b8jsxxbt9.woff") format("woff"), url("chrome-extension://pogijhnlcfmcppgimcaccdkmbedjkmhi/res/font_9qmmi8b8jsxxbt9.ttf") format("truetype"); }
</style></defs><path d="M933.48 907.717l-48.452-19.563a20.978 20.978 0 0 0-20.701 2.88 147.334 147.334 0 0 1-33.529 19.54 20.962 20.962 0 0 0-12.671 16.402l-7.282 51.535h-73.973l-7.294-51.535a20.955 20.955 0 0 0-12.665-16.402c-11.755-4.91-23.067-11.51-33.619-19.612a20.994 20.994 0 0 0-20.606-2.808l-48.463 19.563-36.924-63.979 41.134-32.27a20.98 20.98 0 0 0 7.857-19.091c-0.983-7.875-1.42-13.881-1.42-19.486 0-5.617 0.437-11.63 1.42-19.498a20.98 20.98 0 0 0-7.857-19.091L577.3 702.037l36.924-63.979 48.463 19.552a20.94 20.94 0 0 0 20.696-2.88 147.169 147.169 0 0 1 33.517-19.522 20.97 20.97 0 0 0 12.677-16.408l7.288-51.542h74.087l7.288 51.542a20.958 20.958 0 0 0 12.677 16.402c11.731 4.904 23.049 11.503 33.624 19.611a20.928 20.928 0 0 0 20.594 2.797l48.463-19.552 36.924 63.967-41.23 32.265a20.965 20.965 0 0 0-7.886 19.09c0.988 7.93 1.431 13.948 1.431 19.51 0 5.552-0.443 11.57-1.43 19.505a20.972 20.972 0 0 0 7.868 19.072l41.133 32.265-36.93 63.985z m69.482-91.729l-38.72-30.372c0.347-4.527 0.515-8.665 0.515-12.725 0-4.06-0.168-8.198-0.515-12.725l38.9-30.439c12.551-9.929 15.887-27.295 7.862-41.415l-45.361-78.585c-5.773-9.91-16.444-16.066-27.852-16.066-4.09 0-8.09 0.772-11.923 2.311l-45.714 18.45a193.579 193.579 0 0 0-22.013-12.839l-6.88-48.703a27.746 27.746 0 0 0-0.174-1.018c-2.953-15.372-16.373-26.522-31.918-26.522h-90.633c-15.81 0-29.223 11.336-31.972 27.54l-6.886 48.685a189.977 189.977 0 0 0-22.055 12.84l-46.116-18.606a32.282 32.282 0 0 0-11.432-2.09c-11.455 0-22.145 6.138-27.941 16.09l-45.284 78.465c-8.018 13.803-4.82 31.17 7.905 41.523l38.714 30.367c-0.305 3.964-0.515 8.293-0.515 12.737 0 4.437 0.21 8.767 0.515 12.725l-38.75 30.402c-12.582 9.911-15.941 27.29-7.899 41.433l45.35 78.585c5.772 9.917 16.45 16.073 27.863 16.073 4.078 0 8.067-0.767 11.917-2.306l45.72-18.456a192.985 192.985 0 0 0 22.008 12.84l6.982 49.289c2.653 15.617 16.067 26.953 31.876 26.953h90.633c15.815 0 29.217-11.336 31.971-27.534l6.887-48.69a190.194 190.194 0 0 0 22.055-12.84l46.14 18.624a32.426 32.426 0 0 0 11.407 2.072c11.474 0 22.175-6.15 27.942-16.09l45.29-78.466c8.012-13.79 4.82-31.139-7.9-41.517z" p-id="10508"></path><path d="M773.848 815.703c-23.6 0-42.804-19.205-42.804-42.81 0-23.612 19.204-42.823 42.804-42.823 23.612 0 42.823 19.21 42.823 42.822 0 23.606-19.21 42.81-42.823 42.81m0-127.55c-46.72 0-84.722 38.014-84.722 84.74 0 46.721 38.001 84.729 84.722 84.729 46.727 0 84.74-38.008 84.74-84.729 0-46.726-38.013-84.74-84.74-84.74M732.491 177.77H136.08c-11.57 0-20.959 9.384-20.959 20.96 0 11.574 9.39 20.958 20.959 20.958h596.411c11.576 0 20.96-9.384 20.96-20.959s-9.384-20.959-20.96-20.959M753.45 348.934c0-11.576-9.383-20.96-20.959-20.96H136.08c-11.57 0-20.959 9.384-20.959 20.96 0 11.575 9.39 20.959 20.959 20.959h596.411c11.576 0 20.96-9.384 20.96-20.96M136.082 478.185c-11.576 0-20.96 9.384-20.96 20.96 0 11.575 9.384 20.958 20.96 20.958H540.37c11.57 0 20.96-9.383 20.96-20.959 0-11.575-9.39-20.959-20.96-20.959H136.082z" p-id="10509"></path><path d="M471.492 956.375H78.419c-16.82 0-30.51-13.689-30.51-30.51V72.442c0-16.833 13.69-30.523 30.51-30.523h711.728c16.827 0 30.523 13.69 30.523 30.523v368.095c0 11.575 9.383 20.959 20.959 20.959 11.569 0 20.959-9.384 20.959-20.96V72.443c0-39.942-32.499-72.44-72.44-72.44H78.418C38.477 0.001 5.991 32.5 5.991 72.441v853.423c0 39.936 32.486 72.428 72.428 72.428h393.073c11.575 0 20.959-9.383 20.959-20.959 0-11.575-9.384-20.959-20.96-20.959" p-id="10510"></path></svg>