<?xml version="1.0" standalone="no"?><!DOCTYPE svg PUBLIC "-//W3C//DTD SVG 1.1//EN" "http://www.w3.org/Graphics/SVG/1.1/DTD/svg11.dtd"><svg t="1497929189565" class="icon" style="" viewBox="0 0 1024 1024" version="1.1" xmlns="http://www.w3.org/2000/svg" p-id="1046" xmlns:xlink="http://www.w3.org/1999/xlink" width="200" height="200"><defs><style type="text/css"></style></defs><path d="M351.623168 152.52992c15.976448 0 29.646848 5.53472 41.015296 16.59392 11.368448 11.060224 17.052672 24.58112 17.052672 40.552448l0 230.429696c0 15.976448-5.684224 29.650944-17.052672 41.020416-11.368448 11.363328-25.038848 17.048576-41.015296 17.048576L121.193472 498.174976c-15.976448 0-29.497344-5.684224-40.557568-17.048576-11.0592-11.369472-16.5888-25.042944-16.5888-41.020416L64.047104 209.676288c0-15.972352 5.5296-29.492224 16.5888-40.552448 11.060224-11.0592 24.58112-16.59392 40.557568-16.59392L351.623168 152.52992 351.623168 152.52992zM351.623168 613.387264c15.976448 0 29.646848 5.5296 41.015296 16.594944 11.368448 11.0592 17.052672 24.574976 17.052672 40.551424l0 231.351296c0 15.976448-5.684224 29.497344-17.052672 40.557568-11.368448 11.0592-25.038848 16.5888-41.015296 16.5888L121.193472 959.031296c-15.976448 0-29.497344-5.530624-40.557568-16.5888-11.0592-11.060224-16.5888-24.58112-16.5888-40.557568L64.047104 670.533632c0-15.976448 5.5296-29.492224 16.5888-40.551424 11.060224-11.06432 24.58112-16.594944 40.557568-16.594944L351.623168 613.387264 351.623168 613.387264zM813.402112 613.387264c15.976448 0 29.492224 5.5296 40.552448 16.594944 11.065344 11.0592 16.59392 24.574976 16.59392 40.551424l0 231.351296c0 15.976448-5.528576 29.497344-16.59392 40.557568-11.060224 11.0592-24.576 16.5888-40.552448 16.5888L582.97344 959.031296c-15.977472 0-29.651968-5.530624-41.015296-16.5888-11.369472-11.060224-17.052672-24.58112-17.052672-40.557568L524.905472 670.533632c0-15.976448 5.6832-29.492224 17.052672-40.551424 11.363328-11.06432 25.037824-16.594944 41.015296-16.594944L813.402112 613.387264 813.402112 613.387264zM941.519872 253.919232c12.290048 12.290048 18.432 26.732544 18.432 43.322368 0 16.5888-6.142976 30.722048-18.432 42.399744L770.080768 511.080448c-12.290048 12.284928-26.57792 18.432-42.858496 18.432-16.285696 0-30.573568-6.147072-42.858496-18.432L512.923648 339.641344c-11.677696-11.677696-17.51552-25.810944-17.51552-42.399744 0-16.589824 5.837824-31.03232 17.51552-43.322368L684.362752 82.480128c12.284928-11.672576 26.5728-17.5104 42.858496-17.5104 16.280576 0 30.568448 5.837824 42.858496 17.5104L941.519872 253.919232zM941.519872 253.919232" p-id="1047"></path></svg>