<?xml version="1.0" standalone="no"?><!DOCTYPE svg PUBLIC "-//W3C//DTD SVG 1.1//EN" "http://www.w3.org/Graphics/SVG/1.1/DTD/svg11.dtd"><svg t="1509869813953" class="icon" style="" viewBox="0 0 1024 1024" version="1.1" xmlns="http://www.w3.org/2000/svg" p-id="979" xmlns:xlink="http://www.w3.org/1999/xlink" width="200" height="200"><defs><style type="text/css"></style></defs><path d="M514.0992 87.5776c139.4688 0 278.9376-0.03072 418.42176 0.01536 48.10752 0.01536 64.60416 16.28672 64.60928 64.0768 0.02048 240.02048-0.01536 480.03584-0.1536 720.05632-0.03072 48.384-16.02048 64.64-63.7952 64.65024-281.37984 0.09728-562.7648 0.08704-844.14976 0.01536-44.52864-0.01536-61.98784-17.024-62.0288-61.62432C26.81856 632.30976 26.8032 389.84704 27.02848 147.38944c0.04096-42.9568 17.58208-59.70432 61.3376-59.74528C230.28224 87.48032 372.18304 87.58272 514.0992 87.5776L514.0992 87.5776zM331.3152 709.68832 90.32704 709.68832l0 163.59936L331.3152 873.28768 331.3152 709.68832 331.3152 709.68832zM632.01792 874.23488l0-163.77856L392.40192 710.45632l0 163.77856L632.01792 874.23488 632.01792 874.23488zM692.66432 872.92416l241.14688 0 0-162.9184-241.14688 0L692.66432 872.92416 692.66432 872.92416zM90.74176 490.09152l0 162.14016 239.89248 0L330.63424 490.09152 90.74176 490.09152 90.74176 490.09152zM692.4544 654.3616c78.62784 0 154.51136 0.17408 230.37952-0.49664 4.096-0.04096 11.5968-7.20384 11.66336-11.14624 0.78848-50.6368 0.51712-101.28896 0.51712-151.71072l-242.56 0C692.4544 545.67424 692.4544 598.09792 692.4544 654.3616L692.4544 654.3616zM391.26528 652.4928l241.0496 0L632.31488 490.84928l-241.0496 0L391.26528 652.4928 391.26528 652.4928zM330.83904 434.36032 330.83904 271.3088 88.84736 271.3088c0 50.77504-0.49664 99.28192 0.70656 147.7376 0.12288 5.22752 9.96864 14.58688 15.39072 14.65344C179.41504 434.67776 253.90592 434.36032 330.83904 434.36032L330.83904 434.36032zM391.84896 432.14336l239.88224 0L631.7312 270.80192 391.84896 270.80192 391.84896 432.14336 391.84896 432.14336zM933.31456 432.82944 933.31456 270.5664l-240.3328 0 0 162.26304L933.31456 432.82944 933.31456 432.82944zM933.31456 432.82944" p-id="980"></path></svg>