<?xml version="1.0" standalone="no"?><!DOCTYPE svg PUBLIC "-//W3C//DTD SVG 1.1//EN" "http://www.w3.org/Graphics/SVG/1.1/DTD/svg11.dtd"><svg t="1501481510814" class="icon" style="" viewBox="0 0 1024 1024" version="1.1" xmlns="http://www.w3.org/2000/svg" p-id="1817" xmlns:xlink="http://www.w3.org/1999/xlink" width="200" height="200"><defs><style type="text/css"></style></defs><path d="M512.002007 62.579606c-248.211165 0-449.424408 201.213242-449.424408 449.424408 0 248.207151 201.213242 449.420394 449.424408 449.420394 248.207151 0 449.420394-201.213242 449.420394-449.420394 0-248.213172-201.213242-449.424408-449.420394-449.424408z m177.898917 605.494117c-8.886617 8.886617-22.047962 10.130904-29.40531 2.773556l-166.455491-166.453485c-3.576322-3.578328-5.103583-8.537414-4.72227-13.707225-0.030104-0.477646-0.072249-0.953284-0.072249-1.438958V204.801606c0-12.567298 10.189105-22.756403 22.756403-22.756403s22.756403 10.189105 22.756403 22.756403v275.946722l157.920084 157.918077c7.355341 7.355341 6.107041 20.518693-2.77757 29.407318z" fill="" p-id="1818"></path></svg>