<?xml version="1.0" standalone="no"?><!DOCTYPE svg PUBLIC "-//W3C//DTD SVG 1.1//EN" "http://www.w3.org/Graphics/SVG/1.1/DTD/svg11.dtd"><svg t="1494986173820" class="icon" style="" viewBox="0 0 1024 1024" version="1.1" xmlns="http://www.w3.org/2000/svg" p-id="3137" xmlns:xlink="http://www.w3.org/1999/xlink" width="200" height="200"><defs><style type="text/css">@font-face { font-family: uc-nexus-iconfont; src: url("chrome-extension://pogijhnlcfmcppgimcaccdkmbedjkmhi/res/font_9qmmi8b8jsxxbt9.woff") format("woff"), url("chrome-extension://pogijhnlcfmcppgimcaccdkmbedjkmhi/res/font_9qmmi8b8jsxxbt9.ttf") format("truetype"); }
</style></defs><path d="M512 736c10.88 0 19.2-8.32 19.2-19.2L531.2 531.2l185.6 0c10.88 0 19.2-8.32 19.2-19.2s-8.32-19.2-19.2-19.2L531.2 492.8 531.2 307.2c0-10.88-8.32-19.2-19.2-19.2s-19.2 8.32-19.2 19.2l0 185.6L307.2 492.8c-10.88 0-19.2 8.32-19.2 19.2s8.32 19.2 19.2 19.2l185.6 0 0 185.6C492.8 727.68 501.12 736 512 736z" p-id="3138"></path><path d="M448 179.2l128 0c10.88 0 19.2-8.32 19.2-19.2s-8.32-19.2-19.2-19.2L448 140.8c-10.88 0-19.2 8.32-19.2 19.2S437.12 179.2 448 179.2z" p-id="3139"></path><path d="M160 339.2c10.88 0 19.2-8.32 19.2-19.2L179.2 230.4c0-28.16 23.04-51.2 51.2-51.2l89.6 0c10.88 0 19.2-8.32 19.2-19.2s-8.32-19.2-19.2-19.2L230.4 140.8c-49.28 0-89.6 40.32-89.6 89.6l0 89.6C140.8 330.88 149.12 339.2 160 339.2z" p-id="3140"></path><path d="M160 595.2c10.88 0 19.2-8.32 19.2-19.2L179.2 448c0-10.88-8.32-19.2-19.2-19.2s-19.2 8.32-19.2 19.2l0 128C140.8 586.88 149.12 595.2 160 595.2z" p-id="3141"></path><path d="M320 844.8 230.4 844.8c-28.16 0-51.2-23.04-51.2-51.2l0-89.6c0-10.88-8.32-19.2-19.2-19.2s-19.2 8.32-19.2 19.2l0 89.6c0 49.28 40.32 89.6 89.6 89.6l89.6 0c10.88 0 19.2-8.32 19.2-19.2S330.88 844.8 320 844.8z" p-id="3142"></path><path d="M576 844.8 448 844.8c-10.88 0-19.2 8.32-19.2 19.2s8.32 19.2 19.2 19.2l128 0c10.88 0 19.2-8.32 19.2-19.2S586.88 844.8 576 844.8z" p-id="3143"></path><path d="M864 684.8c-10.88 0-19.2 8.32-19.2 19.2l0 89.6c0 28.16-23.04 51.2-51.2 51.2l-89.6 0c-10.88 0-19.2 8.32-19.2 19.2s8.32 19.2 19.2 19.2l89.6 0c49.28 0 89.6-40.32 89.6-89.6l0-89.6C883.2 693.12 874.88 684.8 864 684.8z" p-id="3144"></path><path d="M864 428.8c-10.88 0-19.2 8.32-19.2 19.2l0 128c0 10.88 8.32 19.2 19.2 19.2s19.2-8.32 19.2-19.2L883.2 448C883.2 437.12 874.88 428.8 864 428.8z" p-id="3145"></path><path d="M793.6 140.8l-89.6 0c-10.88 0-19.2 8.32-19.2 19.2s8.32 19.2 19.2 19.2l89.6 0c28.16 0 51.2 23.04 51.2 51.2l0 89.6c0 10.88 8.32 19.2 19.2 19.2s19.2-8.32 19.2-19.2L883.2 230.4C883.2 181.12 842.88 140.8 793.6 140.8z" p-id="3146"></path></svg>