<?xml version="1.0" standalone="no"?><!DOCTYPE svg PUBLIC "-//W3C//DTD SVG 1.1//EN" "http://www.w3.org/Graphics/SVG/1.1/DTD/svg11.dtd"><svg t="1505444922359" class="icon" style="" viewBox="0 0 1280 1024" version="1.1" xmlns="http://www.w3.org/2000/svg" p-id="6585" xmlns:xlink="http://www.w3.org/1999/xlink" width="250" height="200"><defs><style type="text/css"></style></defs><path d="M654.506667 720.213333c-126.72-48.213333-167.253333-88.746667-167.253333-175.786667 0-52.053333 38.826667-34.986667 55.466667-130.56 7.253333-39.68 41.386667-0.853333 47.786667-91.306667 0-35.84-18.346667-44.8-18.346667-44.8s9.386667-53.333333 12.8-94.293333C589.653333 132.266667 556.8 0 381.013333 0S172.373333 132.266667 177.066667 183.466667c3.84 40.96 13.226667 94.293333 13.226667 94.293333S171.52 286.72 171.52 322.56C178.346667 413.013333 212.48 374.186667 219.306667 413.866667c17.066667 95.573333 55.466667 78.506667 55.466667 130.56 0 87.04-40.533333 127.573333-166.826667 175.786667C69.12 734.72 0 757.333333 0 811.946667L0 1024l889.173333 0 0-158.72C889.173333 815.36 781.226667 768.426667 654.506667 720.213333zM1280 1024c0 0-2.56-220.16-17.493333-243.2-21.76-34.133333-73.386667-57.173333-168.533333-93.44-94.72-36.266667-125.013333-66.56-125.013333-131.84 0-38.826667 28.586667-26.453333 41.386667-97.706667 5.546667-29.866667 31.146667-0.853333 35.84-68.266667 0-27.306667-14.08-34.133333-14.08-34.133333s7.253333-39.68 10.24-70.826667c3.413333-38.4-21.333333-137.386667-153.173333-137.386667s-156.586667 98.986667-153.173333 137.386667c2.986667 31.146667 9.813333 70.826667 9.813333 70.826667s-14.08 6.826667-14.08 34.133333c5.12 67.84 30.72 38.4 35.84 68.266667 12.8 71.253333 41.813333 58.88 41.813333 97.706667 0 44.373333-14.08 72.533333-52.906667 97.706667 207.36 94.293333 235.093333 113.493333 235.093333 197.973333L991.573333 1024 1280 1024z" p-id="6586"></path></svg>