<?xml version="1.0" standalone="no"?><!DOCTYPE svg PUBLIC "-//W3C//DTD SVG 1.1//EN" "http://www.w3.org/Graphics/SVG/1.1/DTD/svg11.dtd"><svg t="1502278319226" class="icon" style="" viewBox="0 0 1024 1024" version="1.1" xmlns="http://www.w3.org/2000/svg" p-id="4034" xmlns:xlink="http://www.w3.org/1999/xlink" width="200" height="200"><defs><style type="text/css"></style></defs><path d="M948.928 758.784c-16.576-25.856-16.384-41.984-71.552-65.216-55.232-22.848-68.352-30.848-68.352-30.848l-0.448-52.928c0 0 20.672-15.936 27.136-65.792 12.864 3.712 26.432-19.264 27.264-31.424 0.64-11.648-1.792-44.16-17.6-40.896 3.2-24.448 5.568-46.464 4.48-58.112-4.16-42.496-46.08-87.36-110.528-87.36S633.024 371.072 628.8 413.568c-1.088 11.712 1.28 33.664 4.48 58.112C617.408 468.352 614.912 500.928 615.68 512.576c0.832 12.16 14.4 35.136 27.264 31.424 6.528 49.856 27.2 65.792 27.2 65.792L624 645.824c25.728 14.144 92.864 6.656 106.944 28.544 8.256 12.864 30.08 46.912 23.808 251.456l204.608 0C959.36 925.824 963.904 781.952 948.928 758.784z" p-id="4035"></path><path d="M525.696 667.52c-61.44-25.6-76.032-34.624-76.032-34.624L449.024 574.08c0 0 23.104-17.728 30.336-73.216C493.632 505.024 508.8 479.424 509.632 465.856c0.768-12.928-1.984-49.152-19.584-45.504 3.584-27.264 6.144-51.712 4.864-64.64-4.48-47.36-51.2-97.344-122.88-97.344-71.68 0-118.336 49.984-122.944 97.344C247.872 368.704 250.432 393.152 254.08 420.352 236.416 416.768 233.664 452.928 234.496 465.856c0.832 13.568 15.936 39.104 30.336 35.008C272 556.288 294.976 574.08 294.976 574.08L294.4 632.896c0 0-14.592 9.024-76.032 34.624-61.504 25.664-123.648 43.52-142.08 72.384-16.576 25.792-11.648 185.92-11.648 185.92l307.328 0 307.328 0c0 0 4.928-160.128-11.648-185.92C649.344 710.976 587.2 693.184 525.696 667.52z" p-id="4036"></path></svg>