<?xml version="1.0" standalone="no"?><!DOCTYPE svg PUBLIC "-//W3C//DTD SVG 1.1//EN" "http://www.w3.org/Graphics/SVG/1.1/DTD/svg11.dtd"><svg t="1505443609842" class="icon" style="" viewBox="0 0 1024 1024" version="1.1" xmlns="http://www.w3.org/2000/svg" p-id="2375" xmlns:xlink="http://www.w3.org/1999/xlink" width="200" height="200"><defs><style type="text/css"></style></defs><path d="M932.941 800.45c0 0 0 0.001 0 0.003 0 15.362-11.745 27.877-26.235 27.877h-195.721c14.665-3.452 25.649-17.271 25.649-33.873 0 0 0-0.001 0-0.003h0.001c0 0 0-126.508-87.173-172.49-37.275-19.673-39.733-15.957-58.214-20.555l0.513-54.864c0 0-20.281-16.528-26.662-68.25-12.768 3.892-16.928-15.825-17.744-28.393-0.663-12.083-7.356-50.059 8.189-46.677-3.116-25.324-5.553-48.169-4.389-60.239 3.892-42.439 42.501-86.849 101.959-90.145 69.881 3.317 97.583 47.601 101.526 90.046 1.109 12.076-1.346 34.945-4.581 60.239 15.595-3.324 8.751 34.501 7.988 46.677-0.663 12.528-4.994 32.277-17.727 28.369-6.334 51.734-26.662 68.108-26.662 68.108l0.423 54.717c0 0 12.881 7.781 67.245 31.69 54.301 23.887 37.275 6.061 81.611 29.356 70.021 37.005 70.021 138.43 70.021 138.43v0zM538.759 613.268c59.749 26.235 41.025 6.582 89.596 32.293 76.91 40.566 76.91 152.094 76.91 152.094h-0.001c0 0.001 0 0.001 0 0.001 0 16.928-12.881 30.659-28.922 30.659h-558.275c-15.957 0-28.922-13.722-28.922-30.659 0 0 0 0 0-0.001h-0.001c0 0 0-111.585 76.91-152.094 48.656-25.649 29.871-4.886 89.633-31.107 59.693-26.215 73.838-35.393 73.838-35.393l0.547-60.474c0 0-22.357-18.156-29.326-75.043-14.025 4.3-18.59-17.428-19.414-31.263-0.754-13.342-8.127-55.019 8.975-51.297-3.538-27.91-6.011-52.933-4.723-66.221 4.3-46.715 46.715-95.511 112.066-99.070 76.892 3.543 107.291 52.378 111.588 99.045 1.184 13.265-1.437 38.461-4.994 66.207 17.063-3.774 9.662 37.918 8.751 51.297-0.754 13.787-5.553 35.444-19.414 31.152-6.933 56.87-29.356 74.857-29.356 74.857l0.513 60.148c-0.001 0.001 14.1 8.665 73.838 34.805z" p-id="2376"></path></svg>