<?xml version="1.0" standalone="no"?><!DOCTYPE svg PUBLIC "-//W3C//DTD SVG 1.1//EN" "http://www.w3.org/Graphics/SVG/1.1/DTD/svg11.dtd"><svg t="1495440660602" class="icon" style="" viewBox="0 0 1024 1024" version="1.1" xmlns="http://www.w3.org/2000/svg" p-id="3249" xmlns:xlink="http://www.w3.org/1999/xlink" width="200" height="200"><defs><style type="text/css">@font-face { font-family: uc-nexus-iconfont; src: url("chrome-extension://pogijhnlcfmcppgimcaccdkmbedjkmhi/res/font_9qmmi8b8jsxxbt9.woff") format("woff"), url("chrome-extension://pogijhnlcfmcppgimcaccdkmbedjkmhi/res/font_9qmmi8b8jsxxbt9.ttf") format("truetype"); }
</style></defs><path d="M849.12 928.704H174.88c-45.216 0-81.536-17.728-99.68-48.64-18.144-30.912-15.936-71.296 6.08-110.752l340.192-609.664c22.144-39.744 55.072-62.528 90.304-62.528s68.128 22.752 90.336 62.464l340.544 609.792c22.016 39.456 24.288 79.808 6.112 110.72-18.112 30.912-54.464 48.608-99.648 48.608zM511.808 161.12c-11.2 0-24.032 11.104-34.432 29.696L137.184 800.544c-10.656 19.136-13.152 36.32-6.784 47.168 6.368 10.816 22.592 17.024 44.48 17.024h674.24c21.92 0 38.112-6.176 44.48-17.024 6.336-10.816 3.872-28-6.816-47.136L546.24 190.816c-10.368-18.592-23.264-29.696-34.432-29.696z" p-id="3250"></path><path d="M512 640c-17.664 0-32-14.304-32-32V320c0-17.664 14.336-32 32-32s32 14.336 32 32v288c0 17.696-14.336 32-32 32zM464 752.128a1.5 1.5 0 1 0 96 0 1.5 1.5 0 1 0-96 0z" p-id="3251"></path></svg>