<?xml version="1.0" standalone="no"?><!DOCTYPE svg PUBLIC "-//W3C//DTD SVG 1.1//EN" "http://www.w3.org/Graphics/SVG/1.1/DTD/svg11.dtd"><svg t="1495088179371" class="icon" fill="#fff" viewBox="0 0 1025 1024" version="1.1" xmlns="http://www.w3.org/2000/svg" p-id="1898" xmlns:xlink="http://www.w3.org/1999/xlink" width="200.1953125" height="200"><defs><style type="text/css">@font-face { font-family: uc-nexus-iconfont; src: url("chrome-extension://pogijhnlcfmcppgimcaccdkmbedjkmhi/res/font_9qmmi8b8jsxxbt9.woff") format("woff"), url("chrome-extension://pogijhnlcfmcppgimcaccdkmbedjkmhi/res/font_9qmmi8b8jsxxbt9.ttf") format("truetype"); }
</style></defs><path d="M1014.181628 962.680453 840.041396 776.493162C910.63716 691.561399 949.458806 585.697872 949.458806 474.232462 949.458806 212.751055 736.46681 0 474.684227 0 212.961878 0 0 212.720937 0 474.232462 0 735.743986 212.961878 948.464924 474.714344 948.464924 543.292225 948.434806 609.430577 934.128924 671.262105 905.999042 689.63387 897.656454 697.735516 876.031984 689.362811 857.690337 681.020223 839.318573 659.245164 831.186808 641.023988 839.619749 588.679519 863.382572 532.751049 875.459748 474.684227 875.519984 253.199054 875.519984 73.035293 695.506811 73.035293 474.232462 73.035293 253.018348 253.199054 72.975057 474.684227 72.975057 696.199517 72.975057 876.423513 252.958113 876.423513 474.232462 876.423513 578.379283 836.638102 677.074811 764.476221 752.127986 750.501633 766.644692 750.983516 789.744927 765.470103 803.719515 766.554339 804.773632 767.999986 805.165162 769.234809 806.068691 770.228692 807.544456 770.740692 809.231044 771.975515 810.526103L960.843276 1012.434805C967.981159 1020.114805 977.739276 1023.999981 987.497393 1023.999981 996.442334 1023.999981 1005.387275 1020.747275 1012.434805 1014.151511 1027.162334 1000.447981 1027.945393 977.377864 1014.181628 962.680453Z" p-id="1899"></path></svg>