<?xml version="1.0" standalone="no"?><!DOCTYPE svg PUBLIC "-//W3C//DTD SVG 1.1//EN" "http://www.w3.org/Graphics/SVG/1.1/DTD/svg11.dtd"><svg t="1494842323055" class="icon" fill="#fff" viewBox="0 0 1024 1024" version="1.1" xmlns="http://www.w3.org/2000/svg" p-id="2486" xmlns:xlink="http://www.w3.org/1999/xlink" width="28" height="28"><defs><style type="text/css">@font-face { font-family: uc-nexus-iconfont; src: url("chrome-extension://pogijhnlcfmcppgimcaccdkmbedjkmhi/res/font_9qmmi8b8jsxxbt9.woff") format("woff"), url("chrome-extension://pogijhnlcfmcppgimcaccdkmbedjkmhi/res/font_9qmmi8b8jsxxbt9.ttf") format("truetype"); }
</style></defs><path d="M512.005 63.932c-0.133 0-0.265 0.002-0.397 0.003 0 0-13.474-1.081-26.394 11.84-10.22 10.22-9.426 24.438-9.426 24.438s-0.053 14.906 8.79 23.749c12.762 12.762 27.03 11.535 27.03 11.535 208.174 0 376.932 168.758 376.932 376.932S719.781 889.36 511.608 889.36 134.676 720.602 134.676 512.428c0-0.274 0.005-0.547 0.005-0.821 0 0 0.755-14.594-10.441-25.79-10.417-10.417-24.521-9.638-24.521-9.638s-14.226-0.681-24.74 9.833c-12.948 12.948-11.045 25.595-11.045 25.595l-0.003 0.399c0 247.464 200.61 448.074 448.074 448.074s448.074-200.61 448.074-448.074S759.469 63.932 512.005 63.932z" fill="" p-id="2487"></path></svg>