<?xml version="1.0" standalone="no"?><!DOCTYPE svg PUBLIC "-//W3C//DTD SVG 1.1//EN" "http://www.w3.org/Graphics/SVG/1.1/DTD/svg11.dtd"><svg t="1494313917083" class="icon" fill="#fff" viewBox="0 0 1245 1245" version="1.1" xmlns="http://www.w3.org/2000/svg" p-id="1589" xmlns:xlink="http://www.w3.org/1999/xlink" width="200" height="200"><defs><style type="text/css">@font-face { font-family: uc-nexus-iconfont; src: url("chrome-extension://pogijhnlcfmcppgimcaccdkmbedjkmhi/res/font_9qmmi8b8jsxxbt9.woff") format("woff"), url("chrome-extension://pogijhnlcfmcppgimcaccdkmbedjkmhi/res/font_9qmmi8b8jsxxbt9.ttf") format("truetype"); }
</style></defs><path d="M110.023324 952.684768c-14.360056 0-26.043143-11.750625-26.043143-26.196639L83.980181 133.414569c0-14.447037 11.682064-26.200732 26.03905-26.200732s26.03905 11.753695 26.03905 26.200732L136.05828 900.287397l780.983197 0c14.356986 0 26.041096 11.751648 26.046213 26.198685 0 14.447037-11.682064 26.198685-26.042119 26.198685L110.023324 952.684768zM291.599799 851.01418c-58.855456 0-106.739023-48.244794-106.739023-107.545388L184.860776 540.121478c0-7.892761 3.479241-15.284101 9.544377-20.277836l201.754027-166.139901c4.653997-3.816932 10.515494-5.915733 16.514115-5.915733 2.235924 0 4.466732 0.289596 6.630001 0.859577l229.969649 61.234643L901.487224 220.791615c4.535293-3.39533 9.917884-5.187139 15.569604-5.187139 4.040013 0 8.083096 0.963954 11.688203 2.788509 8.845459 4.477988 14.33959 13.44522 14.33959 23.401989l0 501.67484c0 59.300594-47.886637 107.545388-106.745163 107.545388L291.599799 851.015204zM836.338435 798.609647c30.141484 0 54.663994-24.736381 54.663994-55.140855l0-449.477015L700.979584 436.46363l0 362.146017L836.338435 798.609647zM648.897392 798.609647 648.897392 463.952704c-0.274246-0.054235-0.542352-0.11768-0.809435-0.189312l-189.217503-50.382481 0 385.228735L648.897392 798.609647zM236.935806 743.468792c0 30.404474 24.52251 55.140855 54.663994 55.140855l115.192555 0L406.792355 412.664597 236.935806 552.530089 236.935806 743.468792zM190.734554 444.304202c-7.867178 0-15.225773-3.514033-20.188808-9.640568-9.058306-11.175527-7.407714-27.698852 3.680832-36.833907l201.759143-166.141948c4.640694-3.816932 10.503215-5.918803 16.513092-5.918803 2.233877 0 4.462638 0.288572 6.624884 0.858554l229.986021 61.234643L881.315812 98.777701c4.524037-3.3984 9.898441-5.197372 15.538905-5.197372 8.207939 0 16.028045 3.955078 20.920472 10.579963 8.5487 11.582803 6.15007 28.01403-5.347798 36.630269L650.154012 337.433172c-4.453429 3.347235-9.978259 5.194302-15.551184 5.194302-2.251274 0-4.497431-0.294712-6.674003-0.874927L398.683676 280.716426l-191.461613 157.660786C202.573183 442.200284 196.719872 444.304202 190.734554 444.304202z" p-id="1590"></path></svg>