<?xml version="1.0" standalone="no"?><!DOCTYPE svg PUBLIC "-//W3C//DTD SVG 1.1//EN" "http://www.w3.org/Graphics/SVG/1.1/DTD/svg11.dtd"><svg t="1494313902507" class="icon" fill="#fff" viewBox="60 125 996 996" version="1.1" xmlns="http://www.w3.org/2000/svg" p-id="1029" xmlns:xlink="http://www.w3.org/1999/xlink" width="220" height="220"><defs><style type="text/css">@font-face { font-family: uc-nexus-iconfont; src: url("chrome-extension://pogijhnlcfmcppgimcaccdkmbedjkmhi/res/font_9qmmi8b8jsxxbt9.woff") format("woff"), url("chrome-extension://pogijhnlcfmcppgimcaccdkmbedjkmhi/res/font_9qmmi8b8jsxxbt9.ttf") format("truetype"); }
</style></defs><path d="M841.4 273.6 180.6 273.6c-13.3 0-24 10.7-24 24l0 432.3c0 13.3 10.7 24 24 24l100.8 0c7.3 0 14.1-3.3 18.7-8.9l134.3-166.5 61.3 50.6c9.8 8.1 24.2 7.1 32.9-2.2l119.2-128.6c11.6 7.1 25.2 11.1 39.8 11.1 42.3 0 76.8-34.4 76.8-76.8s-34.4-76.8-76.8-76.8c-42.3 0-76.8 34.4-76.8 76.8 0 10.2 2 20 5.7 28.9L508.8 577.6l-62.5-51.6c-4.9-4.1-11.3-6-17.7-5.4-6.4 0.6-12.2 3.8-16.3 8.8L270 705.9l-65.4 0L204.6 321.6l612.7 0 0 384.3-331 0c-13.3 0-24 10.7-24 24l0 117.7-141 0c-13.3 0-24 10.7-24 24s10.7 24 24 24l165 0 71.5 0 86.2 0c13.3 0 24-10.7 24-24s-10.7-24-24-24l-86.2 0-47.5 0 0-93.7 331 0c13.3 0 24-10.7 24-24L865.3 297.6C865.4 284.3 854.6 273.6 841.4 273.6zM687.6 403.7c15.9 0 28.8 12.9 28.8 28.8s-12.9 28.8-28.8 28.8c-15.9 0-28.8-12.9-28.8-28.8S671.7 403.7 687.6 403.7z" p-id="1030"></path></svg>